<svg width="24" height="23" viewBox="0 0 24 23" fill="none" xmlns="http://www.w3.org/2000/svg">
<path d="M15.5 21H19.75C20.164 21 20.5 20.664 20.5 20.25V11.25H20.531C20.364 11.167 20.206 11.065 20.061 10.944L19.66 10.609C19.567 10.533 19.433 10.533 19.34 10.61L19.176 10.747C18.591 11.233 17.855 11.5 17.095 11.5H16.869C16.114 11.5 15.382 11.237 14.8 10.756L14.616 10.604C14.523 10.528 14.39 10.528 14.298 10.604L14.113 10.757C13.53 11.237 12.798 11.5 12.044 11.5H11.907C11.162 11.5 10.439 11.244 9.861 10.775L9.645 10.6C9.552 10.525 9.419 10.526 9.328 10.602L9.155 10.747C8.57 11.234 7.834 11.5 7.074 11.5H6.896C6.143 11.5 5.414 11.239 4.832 10.761L4.638 10.601C4.545 10.525 4.413 10.525 4.32 10.601L3.849 10.989C3.726 11.09 3.592 11.178 3.452 11.25H3.5V20.25C3.5 20.664 3.836 21 4.25 21H8.5V14.75C8.5 14.06 9.06 13.5 9.75 13.5H14.25C14.94 13.5 15.5 14.06 15.5 14.75V21ZM1.673 6H22.327C22.3 5.91 22.271 5.821 22.238 5.733L21.087 2.605C20.823 1.938 20.178 1.5 19.461 1.5H4.54C3.822 1.5 3.177 1.938 2.919 2.588L1.762 5.733C1.729 5.821 1.7 5.91 1.673 6ZM22.5 7.5H1.5V9.25C1.5 9.664 1.836 10 2.25 10H2.421C2.595 10 2.763 9.94 2.897 9.83L3.368 9.443C4.013 8.912 4.945 8.912 5.59 9.443L5.784 9.602C6.097 9.859 6.49 10 6.896 10H7.074C7.483 10 7.88 9.857 8.194 9.595L8.368 9.45C9.01 8.915 9.941 8.909 10.589 9.435L10.805 9.609C11.117 9.862 11.506 10 11.907 10H12.044C12.45 10 12.844 9.858 13.158 9.6L13.343 9.447C13.989 8.913 14.924 8.913 15.571 9.447L15.755 9.6C16.068 9.858 16.462 10 16.869 10H17.095C17.504 10 17.901 9.856 18.216 9.594L18.38 9.458C19.028 8.916 19.972 8.916 20.62 9.457L21.022 9.792C21.183 9.926 21.387 10 21.598 10C22.097 10 22.5 9.597 22.5 9.1V7.5ZM22 11.467V20.25C22 21.493 20.993 22.5 19.75 22.5H4.25C3.007 22.5 2 21.493 2 20.25V11.486C0.875 11.362 0 10.408 0 9.25V7.201C0 6.522 0.12 5.85 0.354 5.214L1.518 2.052C2.01 0.813 3.207 0 4.54 0H19.461C20.793 0 21.99 0.813 22.488 2.069L23.646 5.214C23.88 5.85 24 6.522 24 7.201V9.1C24 10.289 23.135 11.276 22 11.467ZM14 21V15H10V21H14Z" fill="#66676B"/>
</svg>
