<svg width="48" height="48" viewBox="0 0 48 48" fill="none" xmlns="http://www.w3.org/2000/svg">
<g filter="url(#filter0_d)">
<path d="M20.6667 39.7778C11.2222 38.1111 4 29.8889 4 20C4 9 13 0 24 0C35 0 44 9 44 20C44 29.8889 36.7778 38.1111 27.3333 39.7778L26.2222 38.8889H21.7778L20.6667 39.7778Z" fill="url(#paint0_linear)"/>
<path d="M31.7778 25.5555L32.6667 20H27.3334V16.1111C27.3334 14.5555 27.8889 13.3333 30.3334 13.3333H32.8889V8.22222C31.4445 7.99999 29.8889 7.77777 28.4445 7.77777C23.8889 7.77777 20.6667 10.5555 20.6667 15.5555V20H15.6667V25.5555H20.6667V39.6667C21.7778 39.8889 22.8889 40 24 40C25.1111 40 26.2222 39.8889 27.3334 39.6667V25.5555H31.7778Z" fill="white"/>
</g>
<defs>
<filter id="filter0_d" x="0" y="0" width="48" height="48" filterUnits="userSpaceOnUse" color-interpolation-filters="sRGB">
<feFlood flood-opacity="0" result="BackgroundImageFix"/>
<feColorMatrix in="SourceAlpha" type="matrix" values="0 0 0 0 0 0 0 0 0 0 0 0 0 0 0 0 0 0 127 0"/>
<feOffset dy="4"/>
<feGaussianBlur stdDeviation="2"/>
<feColorMatrix type="matrix" values="0 0 0 0 0 0 0 0 0 0 0 0 0 0 0 0 0 0 0.25 0"/>
<feBlend mode="normal" in2="BackgroundImageFix" result="effect1_dropShadow"/>
<feBlend mode="normal" in="SourceGraphic" in2="effect1_dropShadow" result="shape"/>
</filter>
<linearGradient id="paint0_linear" x1="24" y1="38.6156" x2="24" y2="0" gradientUnits="userSpaceOnUse">
<stop stop-color="#0062E0"/>
<stop offset="1" stop-color="#19AFFF"/>
</linearGradient>
</defs>
</svg>
