<svg width="26" height="26" viewBox="0 0 26 26" fill="none" xmlns="http://www.w3.org/2000/svg">
<path d="M24.5 13C24.5 6.649 19.351 1.5 13 1.5C6.649 1.5 1.5 6.649 1.5 13C1.5 19.351 6.649 24.5 13 24.5C19.351 24.5 24.5 19.351 24.5 13ZM26 13C26 20.18 20.18 26 13 26C5.82 26 0 20.18 0 13C0 5.82 5.82 0 13 0C20.18 0 26 5.82 26 13ZM6.479 13H6.631C6.933 13 7.102 13.338 6.934 13.591C6.334 14.491 5.983 15.568 5.983 16.724V17.221C5.983 17.342 5.99 17.461 6.004 17.578C6.03 17.802 5.862 18 5.637 18H5.123C4.228 18 3.5 17.25 3.5 16.327C3.5 14.492 4.727 13 6.479 13ZM19.521 13C21.274 13 22.5 14.492 22.5 16.327C22.5 17.25 21.772 18 20.878 18H20.364C20.139 18 19.97 17.802 19.997 17.578C20.01 17.461 20.017 17.342 20.017 17.221V16.724C20.017 15.568 19.667 14.491 19.067 13.591C18.899 13.338 19.067 13 19.369 13H19.521ZM7.25 12C6.147 12 5.25 10.991 5.25 9.75C5.25 8.384 6.035 7.5 7.25 7.5C8.465 7.5 9.25 8.384 9.25 9.75C9.25 10.991 8.353 12 7.25 12ZM18.75 12C17.647 12 16.75 10.991 16.75 9.75C16.75 8.384 17.535 7.5 18.75 7.5C19.965 7.5 20.75 8.384 20.75 9.75C20.75 10.991 19.853 12 18.75 12ZM14.172 12.5C16.558 12.5 18.5 14.395 18.5 16.724V17.221C18.5 18.202 17.683 19 16.677 19H9.323C8.317 19 7.5 18.202 7.5 17.221V16.724C7.5 14.395 9.441 12.5 11.828 12.5H14.172ZM15.75 8C15.75 9.655 14.517 11 13 11C11.484 11 10.25 9.655 10.25 8C10.25 6.15 11.304 5 13 5C14.697 5 15.75 6.15 15.75 8Z" fill="#66676B"/>
</svg>
